<mxfile host="app.diagrams.net" agent="Mozilla/5.0 (Windows NT 10.0; Win64; x64) AppleWebKit/537.36 (KHTML, like Gecko) Chrome/136.0.0.0 Safari/537.36 Edg/136.0.0.0" version="26.2.14">
  <diagram name="Page-1" id="b8tgg_NbP8OHxFMraK1A">
    <mxGraphModel dx="1053" dy="1085" grid="1" gridSize="10" guides="1" tooltips="1" connect="1" arrows="1" fold="1" page="1" pageScale="1" pageWidth="1169" pageHeight="827" math="0" shadow="0">
      <root>
        <mxCell id="0" />
        <mxCell id="1" parent="0" />
        <mxCell id="5X9iYvjQrkThJ81nToU1-1" value="" style="rounded=0;whiteSpace=wrap;html=1;glass=0;" vertex="1" parent="1">
          <mxGeometry x="200" y="240" width="100" height="100" as="geometry" />
        </mxCell>
        <mxCell id="5X9iYvjQrkThJ81nToU1-3" value="" style="endArrow=none;html=1;rounded=0;entryX=0.004;entryY=0.478;entryDx=0;entryDy=0;entryPerimeter=0;" edge="1" parent="1" target="5X9iYvjQrkThJ81nToU1-1">
          <mxGeometry width="50" height="50" relative="1" as="geometry">
            <mxPoint x="225" y="265" as="sourcePoint" />
            <mxPoint x="200" y="310" as="targetPoint" />
          </mxGeometry>
        </mxCell>
        <mxCell id="5X9iYvjQrkThJ81nToU1-4" value="" style="endArrow=none;html=1;rounded=0;exitX=0.75;exitY=0;exitDx=0;exitDy=0;" edge="1" parent="1" source="5X9iYvjQrkThJ81nToU1-1">
          <mxGeometry width="50" height="50" relative="1" as="geometry">
            <mxPoint x="265" y="250" as="sourcePoint" />
            <mxPoint x="250" y="265" as="targetPoint" />
          </mxGeometry>
        </mxCell>
        <mxCell id="5X9iYvjQrkThJ81nToU1-5" value="" style="endArrow=none;html=1;rounded=0;" edge="1" parent="1">
          <mxGeometry width="50" height="50" relative="1" as="geometry">
            <mxPoint x="250" y="265" as="sourcePoint" />
            <mxPoint x="220" y="265" as="targetPoint" />
          </mxGeometry>
        </mxCell>
      </root>
    </mxGraphModel>
  </diagram>
</mxfile>
